<?xml version="1.0" encoding="UTF-8" standalone="no"?>
<!DOCTYPE svg PUBLIC "-//W3C//DTD SVG 1.1//EN" "http://www.w3.org/Graphics/SVG/1.1/DTD/svg11.dtd">
<svg width="100%" height="100%" viewBox="0 0 374 364" version="1.1" xmlns="http://www.w3.org/2000/svg" xmlns:xlink="http://www.w3.org/1999/xlink" xml:space="preserve" xmlns:serif="http://www.serif.com/" style="fill-rule:evenodd;clip-rule:evenodd;stroke-linejoin:round;stroke-miterlimit:2;">
    <g transform="matrix(1,0,0,1,-324.660368,-266.671262)">
        <path d="M503,273C524.995,260.252 545.542,268.746 555,281C591.724,328.58 685.106,517.371 697,577C702.334,603.743 692.812,611.446 682,623C672.267,633.402 645.46,630.506 634,623C617.458,612.165 610.603,589.256 603,587C565.124,575.761 488.389,589.605 471,579C456.312,570.042 451.333,563 450,541C449.314,529.687 457.997,519.025 466,511C485.326,491.619 563.231,514.073 562,492C560.153,458.887 489.38,353.833 483,318C480.122,301.839 482.131,285.096 503,273Z" style="fill:rgb(249,115,22);"/>
        <path d="M438,345C439.338,342.336 443.333,341.167 446,341C448.667,340.833 452.576,341.534 454,344C460.833,355.833 477.833,397.333 483,414C486.165,424.208 483.426,436.792 478,446C472.5,455.333 466.167,458.5 450,465C437.964,469.839 422.5,467 412,471C402.749,474.524 394.833,484.5 391,492C387.346,499.148 386.957,508.237 389,516C392.333,528.667 407,554.167 411,568C413.876,577.947 415.5,589.667 413,599C410.5,608.333 404.333,618.667 396,624C387.667,629.333 357.501,636.123 334,610C318.174,592.408 327.037,581.522 328,576C335.757,531.539 418.333,384.167 438,345Z" style="fill:rgb(249,115,22);"/>
    </g>
</svg>
